<svg width="307" height="51" viewBox="0 0 307 51" fill="none" xmlns="http://www.w3.org/2000/svg">
<path d="M75.8633 33.9396V25.4019C75.8633 20.9839 72.2946 17.4103 67.8329 17.4103H67.4856C65.7508 17.4103 64.0156 18.0059 63.1731 19.0483V8.92204C63.1731 7.68039 62.2311 7.03589 61.2891 7.03589C60.3471 7.03589 59.4055 7.6808 59.4055 8.92204V40.1442C59.4055 41.3356 60.3475 41.9311 61.2891 41.9311C62.132 41.9311 62.9746 41.4344 63.1233 40.4429C63.8171 41.1372 65.2547 41.9311 67.3862 41.9311H67.8325C72.2445 41.9311 75.8633 38.3576 75.8633 33.9396ZM72.0961 33.9396C72.0961 36.2727 70.2126 38.1592 67.8329 38.1592H67.3866C65.1561 38.1592 63.1735 36.6698 63.1735 34.2375V25.0047C63.1735 22.721 65.1565 21.1826 67.3866 21.1826H67.8329C70.2126 21.1826 72.0961 23.0692 72.0961 25.4019V33.9396ZM91.6767 40.0446C91.6767 39.1017 91.0816 38.1592 89.7931 38.1592C88.256 38.109 87.0666 36.918 87.0666 35.3788V8.92204C87.0666 7.68039 86.125 7.03589 85.1826 7.03589C84.241 7.03589 83.299 7.6808 83.299 8.92204V35.3788C83.299 39.0021 86.1743 41.9311 89.7931 41.9311C91.0816 41.9311 91.6767 40.9878 91.6767 40.0446ZM113.289 33.9396V25.4019C113.289 20.9839 109.72 17.4103 105.308 17.4103H104.812C100.4 17.4103 96.8314 20.9839 96.8314 25.4019V33.9396C96.8314 38.3576 100.4 41.9311 104.812 41.9311H105.308C109.72 41.9311 113.289 38.3576 113.289 33.9396ZM109.522 33.9396C109.522 36.2727 107.638 38.1592 105.308 38.1592H104.862C102.483 38.1592 100.599 36.2727 100.599 33.9396V25.4019C100.599 23.0692 102.483 21.1826 104.812 21.1826H105.308C107.638 21.1826 109.522 23.0692 109.522 25.4019V33.9396V33.9396ZM136.14 33.9396C136.14 32.6493 135.199 32.004 134.257 32.004C133.365 32.004 132.423 32.6493 132.373 33.9396C132.274 36.2727 130.489 38.1592 128.16 38.1592H127.713C125.334 38.1592 123.451 36.2727 123.451 33.9396V25.4019C123.451 23.0692 125.334 21.1826 127.664 21.1826H128.159C130.489 21.1826 132.274 22.9198 132.373 25.4513C132.422 26.6929 133.365 27.2884 134.256 27.2884C135.198 27.2884 136.14 26.6427 136.14 25.4019C136.14 20.9839 132.522 17.4103 128.159 17.4103H127.664C123.301 17.4103 119.683 20.9345 119.683 25.4019V33.9396C119.683 38.3576 123.252 41.9311 127.664 41.9311H128.159C132.571 41.9311 136.14 38.3576 136.14 33.9396ZM159.884 40.0446C159.884 39.747 159.835 39.4001 159.637 39.1017L152.845 27.1884L158.992 20.6365C159.389 20.2394 159.537 19.7928 159.537 19.3459C159.537 18.3524 158.694 17.4099 157.605 17.4099C157.158 17.4099 156.663 17.6079 156.266 18.0552L146.847 28.0819V8.92204C146.847 7.68039 145.905 7.03589 144.963 7.03589C144.022 7.03589 143.08 7.6808 143.08 8.92204V40.0446C143.08 41.2858 144.022 41.9311 144.963 41.9311C145.905 41.9311 146.847 41.2858 146.847 40.0446V33.6408L150.168 30.0673L156.365 40.9376C156.761 41.6336 157.356 41.9311 157.951 41.9311C159.092 41.9311 159.884 41.0372 159.884 40.0446ZM181.298 33.9396C181.298 32.6493 180.356 32.004 179.414 32.004C178.522 32.004 177.58 32.6493 177.53 33.9396C177.431 36.2727 175.647 38.1592 173.318 38.1592H172.871C170.491 38.1592 168.608 36.2727 168.608 33.9396V25.4019C168.608 23.0692 170.491 21.1826 172.822 21.1826H173.318C175.647 21.1826 177.431 22.9198 177.53 25.4513C177.58 26.6929 178.523 27.2884 179.414 27.2884C180.356 27.2884 181.298 26.6427 181.298 25.4019C181.298 20.9839 177.68 17.4103 173.318 17.4103H172.822C168.459 17.4103 164.841 20.9345 164.841 25.4019V33.9396C164.841 38.3576 168.41 41.9311 172.822 41.9311H173.318C177.729 41.9311 181.298 38.3576 181.298 33.9396ZM204.696 40.0446V25.4019C204.696 20.9839 201.126 17.4103 196.714 17.4103H196.318C194.582 17.4103 192.847 18.0059 192.004 18.8993V8.92204C192.004 7.68039 191.063 7.03589 190.122 7.03589C189.18 7.03589 188.238 7.6808 188.238 8.92204V40.0446C188.238 41.2858 189.18 41.9311 190.122 41.9311C191.063 41.9311 192.004 41.2858 192.004 40.0446V25.1537C192.004 22.572 194.236 21.1826 196.517 21.1826C198.697 21.1826 200.927 22.5231 200.927 25.4019V40.0446C200.927 41.2858 201.869 41.9311 202.811 41.9311C203.753 41.9311 204.696 41.2858 204.696 40.0446ZM229.48 39.9964C229.48 39.2013 228.984 38.407 227.894 38.2086C227.002 38.06 226.605 37.4633 226.605 36.5702V25.0537C226.605 20.7851 223.234 17.4099 218.822 17.4099H218.475C215.848 17.4099 212.675 18.4524 211.089 22.0263C210.941 22.3239 210.891 22.6214 210.891 22.9198C210.891 23.9623 211.833 24.657 212.775 24.657C213.42 24.657 214.064 24.3594 214.46 23.6639C215.402 22.0259 216.443 21.1822 218.476 21.1822H218.823C221.004 21.1822 222.838 22.2745 222.838 25.2023C222.838 25.4509 222.838 25.848 222.69 26.0464C221.5 27.7346 210.495 26.3439 210.148 34.1869V34.7824C210.148 39.3997 214.114 41.9307 218.129 41.9307H218.575C220.607 41.9307 222.491 41.1862 223.929 39.9462C224.574 40.8891 225.615 41.6336 227.3 41.8813C227.399 41.9307 227.547 41.9307 227.647 41.9307C228.836 41.9311 229.48 40.9878 229.48 39.9964ZM222.837 33.9396C222.837 36.2727 220.904 38.1592 218.575 38.1592H218.129C215.601 38.1592 213.915 36.8188 213.915 34.6841V34.2865C214.064 30.8118 219.17 31.011 222.837 30.0183V33.9396ZM239.196 40.0446V19.2965C239.196 18.0552 238.253 17.4103 237.312 17.4103C236.371 17.4103 235.429 18.0556 235.429 19.2965V40.0446C235.429 41.2858 236.371 41.9311 237.312 41.9311C238.253 41.9311 239.196 41.2858 239.196 40.0446ZM263.584 40.0446V25.4019C263.584 19.9414 259.866 17.4103 255.653 17.4103H255.206C253.471 17.4103 251.836 18.0059 250.943 18.8993C250.746 17.9059 249.902 17.4103 249.06 17.4103C248.068 17.4103 247.126 18.105 247.126 19.2965V40.0446C247.126 41.2858 248.068 41.9311 249.01 41.9311C249.952 41.9311 250.894 41.2858 250.894 40.0446V25.4019C250.894 23.0692 252.827 21.1826 255.156 21.1826H255.603C257.982 21.1826 259.866 23.0692 259.866 25.4019V40.0446C259.866 41.2858 260.808 41.9311 261.75 41.9311C262.692 41.9311 263.584 41.2858 263.584 40.0446ZM283.036 40.0446V19.2965C283.036 18.0552 282.094 17.4103 281.152 17.4103C280.211 17.4103 279.27 18.0556 279.27 19.2965V40.0446C279.27 41.2858 280.212 41.9311 281.152 41.9311C282.095 41.9311 283.036 41.2858 283.036 40.0446ZM306.879 33.9396V25.4019C306.879 20.9839 303.31 17.4103 298.899 17.4103H298.403C293.991 17.4103 290.422 20.9839 290.422 25.4019V33.9396C290.422 38.3576 293.991 41.9311 298.403 41.9311H298.899C303.31 41.9311 306.879 38.3576 306.879 33.9396ZM303.112 33.9396C303.112 36.2727 301.229 38.1592 298.899 38.1592H298.452C296.072 38.1592 294.189 36.2727 294.189 33.9396V25.4019C294.189 23.0692 296.072 21.1826 298.403 21.1826H298.899C301.229 21.1826 303.112 23.0692 303.112 25.4019V33.9396Z" fill="white" fill-opacity="0.5"/>
<path d="M22.0781 23.272C20.9303 23.272 19.9968 24.2071 19.9968 25.3561C19.9968 26.5051 20.9307 27.4398 22.0781 27.4398C23.2255 27.4398 24.1598 26.5051 24.1598 25.3561C24.1598 24.2071 23.2259 23.272 22.0781 23.272Z" fill="white" fill-opacity="0.5"/>
<path d="M31.7015 17.4897C30.5537 17.4897 29.6211 18.4249 29.6211 19.5739C29.6211 20.7233 30.5541 21.6576 31.7015 21.6576C32.849 21.6576 33.7836 20.7229 33.7836 19.5739C33.784 18.4249 32.8494 17.4897 31.7015 17.4897Z" fill="white" fill-opacity="0.5"/>
<path d="M41.3253 11.7078C40.1779 11.7078 39.2441 12.6425 39.2441 13.7915C39.2441 14.9409 40.1779 15.8768 41.3253 15.8768C42.4736 15.8768 43.4066 14.9413 43.4066 13.7915C43.4066 12.6425 42.4736 11.7078 41.3253 11.7078Z" fill="white" fill-opacity="0.5"/>
<path d="M12.4541 5.92529C11.3066 5.92529 10.3728 6.86041 10.3728 8.00981C10.3728 9.15881 11.3066 10.0935 12.4541 10.0935C13.6019 10.0935 14.5358 9.15881 14.5358 8.00981C14.5358 6.86041 13.6023 5.92529 12.4541 5.92529Z" fill="white" fill-opacity="0.5"/>
<path d="M22.0783 0.143066C20.9305 0.143066 19.9971 1.07859 19.9971 2.22759C19.9971 3.37699 20.9309 4.31211 22.0783 4.31211C23.2258 4.31211 24.16 3.37699 24.16 2.22759C24.16 1.07859 23.2262 0.143066 22.0783 0.143066Z" fill="white" fill-opacity="0.5"/>
<path d="M22.0781 11.7078C20.9303 11.7078 19.9968 12.6425 19.9968 13.7915C19.9968 14.9409 20.9307 15.8768 22.0781 15.8768C23.2255 15.8768 24.1598 14.9413 24.1598 13.7915C24.1598 12.6425 23.2259 11.7078 22.0781 11.7078Z" fill="white" fill-opacity="0.5"/>
<path d="M31.7015 5.92529C30.5537 5.92529 29.6211 6.86041 29.6211 8.00981C29.6211 9.15881 30.5541 10.0935 31.7015 10.0935C32.849 10.0935 33.7836 9.15881 33.7836 8.00981C33.784 6.86041 32.8494 5.92529 31.7015 5.92529Z" fill="white" fill-opacity="0.5"/>
<path d="M31.7015 29.0544C30.5537 29.0544 29.6211 29.9892 29.6211 31.1377C29.6211 32.2871 30.5541 33.2219 31.7015 33.2219C32.849 33.2219 33.7836 32.2871 33.7836 31.1377C33.784 29.9892 32.8494 29.0544 31.7015 29.0544Z" fill="white" fill-opacity="0.5"/>
<path d="M41.3253 23.272C40.1779 23.272 39.2441 24.2071 39.2441 25.3561C39.2441 26.5051 40.1779 27.4398 41.3253 27.4398C42.4736 27.4398 43.4066 26.5051 43.4066 25.3561C43.4066 24.2071 42.4736 23.272 41.3253 23.272Z" fill="white" fill-opacity="0.5"/>
<path d="M31.7015 40.6182C30.5537 40.6182 29.6211 41.5529 29.6211 42.7023C29.6211 43.8513 30.5541 44.786 31.7015 44.786C32.849 44.786 33.7836 43.8513 33.7836 42.7023C33.784 41.5529 32.8494 40.6182 31.7015 40.6182Z" fill="white" fill-opacity="0.5"/>
<path d="M41.3253 34.8359C40.1779 34.8359 39.2441 35.7706 39.2441 36.92C39.2441 38.069 40.1779 39.0038 41.3253 39.0038C42.4736 39.0038 43.4066 38.069 43.4066 36.92C43.4066 35.7706 42.4736 34.8359 41.3253 34.8359Z" fill="white" fill-opacity="0.5"/>
<path d="M22.0781 46.4004C20.9303 46.4004 19.9968 47.3355 19.9968 48.4845C19.9968 49.6331 20.9307 50.5682 22.0781 50.5682C23.2255 50.5682 24.1598 49.6331 24.1598 48.4845C24.1598 47.3355 23.2259 46.4004 22.0781 46.4004Z" fill="white" fill-opacity="0.5"/>
<path d="M22.0781 34.8359C20.9303 34.8359 19.9968 35.7706 19.9968 36.92C19.9968 38.069 20.9307 39.0038 22.0781 39.0038C23.2255 39.0038 24.1598 38.069 24.1598 36.92C24.1598 35.7706 23.2259 34.8359 22.0781 34.8359Z" fill="white" fill-opacity="0.5"/>
<path d="M12.4541 17.4897C11.3067 17.4897 10.3728 18.4249 10.3728 19.5739C10.3728 20.7233 11.3067 21.6576 12.4541 21.6576C13.6019 21.6576 14.5358 20.7229 14.5358 19.5739C14.5358 18.4249 13.6023 17.4897 12.4541 17.4897Z" fill="white" fill-opacity="0.5"/>
<path d="M12.4541 40.6182C11.3067 40.6182 10.3728 41.5529 10.3728 42.7023C10.3728 43.8513 11.3067 44.786 12.4541 44.786C13.6019 44.786 14.5358 43.8513 14.5358 42.7023C14.5358 41.5529 13.6023 40.6182 12.4541 40.6182Z" fill="white" fill-opacity="0.5"/>
<path d="M12.4541 29.0544C11.3067 29.0544 10.3728 29.9892 10.3728 31.1377C10.3728 32.2871 11.3067 33.2219 12.4541 33.2219C13.6019 33.2219 14.5358 32.2871 14.5358 31.1377C14.5358 29.9892 13.6023 29.0544 12.4541 29.0544Z" fill="white" fill-opacity="0.5"/>
<path d="M2.83069 11.7078C1.68285 11.7078 0.749817 12.6425 0.749817 13.7915C0.749817 14.9409 1.68325 15.8768 2.83069 15.8768C3.97812 15.8768 4.91237 14.9413 4.91237 13.7915C4.91237 12.6425 3.97812 11.7078 2.83069 11.7078Z" fill="white" fill-opacity="0.5"/>
<path d="M2.83069 34.8359C1.68285 34.8359 0.749817 35.7706 0.749817 36.92C0.749817 38.069 1.68325 39.0038 2.83069 39.0038C3.97812 39.0038 4.91237 38.069 4.91237 36.92C4.91237 35.7706 3.97812 34.8359 2.83069 34.8359Z" fill="white" fill-opacity="0.5"/>
<path d="M2.83069 23.272C1.68285 23.272 0.749817 24.2071 0.749817 25.3561C0.749817 26.5051 1.68325 27.4398 2.83069 27.4398C3.97812 27.4398 4.91237 26.5051 4.91237 25.3561C4.91237 24.2071 3.97812 23.272 2.83069 23.272Z" fill="white" fill-opacity="0.5"/>
<path d="M237.281 6.93213C236.237 6.93213 235.387 7.78235 235.387 8.82808C235.387 9.87381 236.237 10.7244 237.281 10.7244C238.325 10.7244 239.175 9.87381 239.175 8.82808C239.175 7.78235 238.326 6.93213 237.281 6.93213Z" fill="white" fill-opacity="0.5"/>
<path d="M281.136 6.93213C280.092 6.93213 279.242 7.78235 279.242 8.82808C279.242 9.87381 280.092 10.7244 281.136 10.7244C282.181 10.7244 283.03 9.87381 283.03 8.82808C283.031 7.78235 282.181 6.93213 281.136 6.93213Z" fill="white" fill-opacity="0.5"/>
<path d="M271.202 38.2947C270.163 38.2947 269.318 39.1404 269.318 40.1804C269.318 41.2204 270.163 42.067 271.202 42.067C272.241 42.067 273.085 41.2204 273.085 40.1804C273.085 39.1404 272.241 38.2947 271.202 38.2947Z" fill="white" fill-opacity="0.5"/>
</svg>
