<svg width="241" height="189" viewBox="0 0 241 189" fill="none" xmlns="http://www.w3.org/2000/svg">
<g filter="url(#filter0_bd_8202_145)">
<path d="M116.092 69.8186L107.862 64.9619L116.087 76.5563L124.321 64.9619L116.087 69.8186H116.092ZM116.214 49.7456L107.988 63.3994L116.214 68.2645L124.444 63.4044L116.214 49.7456Z" fill="url(#paint0_linear_8202_145)"/>
</g>
<path d="M126.707 73.0625C126.203 73.0625 125.739 72.9365 125.315 72.6844C124.903 72.4324 124.572 72.1008 124.32 71.6895C124.068 71.265 123.942 70.8007 123.942 70.2966V61.5016C123.942 60.9975 124.068 60.5399 124.32 60.1286C124.572 59.7041 124.903 59.3659 125.315 59.1138C125.739 58.8618 126.203 58.7357 126.707 58.7357H135.502C136.007 58.7357 136.464 58.8618 136.875 59.1138C137.3 59.3659 137.638 59.7041 137.89 60.1286C138.142 60.5399 138.268 60.9975 138.268 61.5016V70.2966C138.268 70.8007 138.142 71.265 137.89 71.6895C137.638 72.1008 137.3 72.4324 136.875 72.6844C136.464 72.9365 136.007 73.0625 135.502 73.0625H126.707ZM126.807 70.416H135.363C135.43 70.416 135.489 70.3961 135.542 70.3563C135.595 70.3033 135.622 70.2436 135.622 70.1773V61.621C135.622 61.5547 135.595 61.5016 135.542 61.4618C135.489 61.4087 135.43 61.3822 135.363 61.3822H126.807C126.741 61.3822 126.681 61.4087 126.628 61.4618C126.588 61.5016 126.568 61.5547 126.568 61.621V70.1773C126.568 70.2436 126.588 70.3033 126.628 70.3563C126.681 70.3961 126.741 70.416 126.807 70.416ZM142.834 73.0625C142.33 73.0625 141.872 72.9365 141.461 72.6844C141.05 72.4324 140.718 72.1008 140.466 71.6895C140.214 71.2783 140.088 70.8206 140.088 70.3165V64.2675C140.088 63.7634 140.214 63.3057 140.466 62.8945C140.718 62.4833 141.05 62.1516 141.461 61.8996C141.872 61.6475 142.33 61.5215 142.834 61.5215H151.788V64.1282H142.934C142.867 64.1282 142.808 64.1547 142.754 64.2078C142.715 64.2476 142.695 64.3006 142.695 64.367V70.217C142.695 70.2834 142.715 70.3431 142.754 70.3961C142.808 70.4359 142.867 70.4558 142.934 70.4558H151.808V73.0625H142.834ZM156.164 73.0625C155.66 73.0625 155.203 72.9365 154.791 72.6844C154.38 72.4324 154.048 72.1008 153.796 71.6895C153.544 71.2783 153.418 70.8206 153.418 70.3165V64.2675C153.418 63.7634 153.544 63.3057 153.796 62.8945C154.048 62.4833 154.38 62.1516 154.791 61.8996C155.203 61.6475 155.66 61.5215 156.164 61.5215H162.392C162.897 61.5215 163.354 61.6475 163.765 61.8996C164.19 62.1516 164.522 62.4833 164.76 62.8945C165.012 63.3057 165.138 63.7634 165.138 64.2675V68.6053H156.025V70.217C156.025 70.2834 156.045 70.3431 156.085 70.3961C156.138 70.4359 156.197 70.4558 156.264 70.4558H165.138V73.0625H156.164ZM156.025 66.2573H162.532V64.367C162.532 64.3006 162.505 64.2476 162.452 64.2078C162.412 64.1547 162.359 64.1282 162.293 64.1282H156.264C156.197 64.1282 156.138 64.1547 156.085 64.2078C156.045 64.2476 156.025 64.3006 156.025 64.367V66.2573ZM169.961 73.0625C169.457 73.0625 168.993 72.9365 168.569 72.6844C168.157 72.4324 167.826 72.1008 167.574 71.6895C167.335 71.2783 167.215 70.8206 167.215 70.3165V65.9787H176.329V64.367C176.329 64.3006 176.302 64.2476 176.249 64.2078C176.209 64.1547 176.156 64.1282 176.09 64.1282H167.215V61.5215H176.19C176.694 61.5215 177.151 61.6475 177.563 61.8996C177.987 62.1516 178.319 62.4833 178.557 62.8945C178.81 63.3057 178.936 63.7634 178.936 64.2675V73.0625H169.961ZM170.061 70.4558H176.329V68.3267H169.822V70.217C169.822 70.2834 169.842 70.3431 169.882 70.3961C169.935 70.4359 169.995 70.4558 170.061 70.4558ZM180.858 73.0625V61.5215H189.832C190.336 61.5215 190.793 61.6475 191.205 61.8996C191.629 62.1516 191.961 62.4833 192.2 62.8945C192.452 63.3057 192.578 63.7634 192.578 64.2675V73.0625H189.971V64.367C189.971 64.3006 189.944 64.2476 189.891 64.2078C189.852 64.1547 189.799 64.1282 189.732 64.1282H183.703C183.637 64.1282 183.577 64.1547 183.524 64.2078C183.484 64.2476 183.464 64.3006 183.464 64.367V73.0625H180.858Z" fill="white" fill-opacity="0.6"/>
<path d="M194.752 73.0625V58.7357H197.638L206.433 69.2022V58.7357H209.079V73.0625H206.194L197.379 62.5761V73.0625H194.752ZM211.348 73.0625V58.7357H224.541V61.3822H213.995V64.5659H222.471V67.2323H213.995V73.0625H211.348ZM231.016 73.0625V61.3822H225.166V58.7357H239.493V61.3822H233.662V73.0625H231.016Z" fill="white"/>
<defs>
<filter id="filter0_bd_8202_145" x="-104.386" y="-162.503" width="441.078" height="451.307" filterUnits="userSpaceOnUse" color-interpolation-filters="sRGB">
<feFlood flood-opacity="0" result="BackgroundImageFix"/>
<feGaussianBlur in="BackgroundImageFix" stdDeviation="106.124"/>
<feComposite in2="SourceAlpha" operator="in" result="effect1_backgroundBlur_8202_145"/>
<feColorMatrix in="SourceAlpha" type="matrix" values="0 0 0 0 0 0 0 0 0 0 0 0 0 0 0 0 0 0 127 0" result="hardAlpha"/>
<feOffset dy="4.42184"/>
<feGaussianBlur stdDeviation="53.6148"/>
<feComposite in2="hardAlpha" operator="out"/>
<feColorMatrix type="matrix" values="0 0 0 0 1 0 0 0 0 0.337255 0 0 0 0 0.964706 0 0 0 0.51 0"/>
<feBlend mode="normal" in2="effect1_backgroundBlur_8202_145" result="effect2_dropShadow_8202_145"/>
<feBlend mode="normal" in="SourceGraphic" in2="effect2_dropShadow_8202_145" result="shape"/>
</filter>
<linearGradient id="paint0_linear_8202_145" x1="107.862" y1="49.7456" x2="128.013" y2="50.2306" gradientUnits="userSpaceOnUse">
<stop offset="0.183111" stop-color="#FF56F6"/>
<stop offset="0.432593" stop-color="#B936EE"/>
<stop offset="0.854443" stop-color="#3BACE2"/>
<stop offset="1" stop-color="#406AFF"/>
</linearGradient>
</defs>
</svg>
