<svg id="Шар_1" data-name="Шар 1" xmlns="http://www.w3.org/2000/svg" xmlns:xlink="http://www.w3.org/1999/xlink" viewBox="0 0 133.59 26.81"><defs><style>.cls-1{fill:none;}.cls-2{fill:url(#Градієнт_без_назви);}.cls-3{fill:#fff;}</style><linearGradient id="Градієнт_без_назви" x1="57.71" y1="230.53" x2="77.86" y2="230.04" gradientTransform="matrix(1, 0, 0, -1, 0, 190)" gradientUnits="userSpaceOnUse"><stop offset="0.18" stop-color="#ff56f6"/><stop offset="0.43" stop-color="#b936ee"/><stop offset="0.85" stop-color="#3bace2"/><stop offset="1" stop-color="#406aff"/></linearGradient></defs><rect class="cls-1" width="133.59" height="26.81"/><path class="cls-2" d="M66.26-33.65,58-38.51l8.22,11.6,8.24-11.6-8.24,4.86Zm.12-20.08L58.15-40.07l8.23,4.86,8.23-4.86Z" transform="translate(-56.84 53.73)"/><path class="cls-3" d="M76.87-30.41a2.6,2.6,0,0,1-1.39-.38,3.05,3.05,0,0,1-1-1,2.71,2.71,0,0,1-.37-1.39V-42a2.58,2.58,0,0,1,.37-1.37,3,3,0,0,1,1-1,2.69,2.69,0,0,1,1.39-.38h8.8a2.59,2.59,0,0,1,1.37.38,2.82,2.82,0,0,1,1,1A2.5,2.5,0,0,1,88.43-42v8.8a2.62,2.62,0,0,1-.38,1.39,2.9,2.9,0,0,1-1,1,2.5,2.5,0,0,1-1.37.38Zm.1-2.65h8.56a.31.31,0,0,0,.18,0,.29.29,0,0,0,.08-.18v-8.56a.19.19,0,0,0-.08-.16.29.29,0,0,0-.18-.08H77a.29.29,0,0,0-.18.08.21.21,0,0,0-.06.16v8.56a.32.32,0,0,0,.06.18A.31.31,0,0,0,77-33.06Zm16,2.65a2.48,2.48,0,0,1-1.37-.38,2.87,2.87,0,0,1-1-1,2.59,2.59,0,0,1-.38-1.37V-39.2a2.6,2.6,0,0,1,.38-1.38,2.87,2.87,0,0,1,1-1A2.57,2.57,0,0,1,93-41.95h9v2.61H93.1a.22.22,0,0,0-.18.08.21.21,0,0,0-.06.16v5.85a.32.32,0,0,0,.06.18.35.35,0,0,0,.18,0H102v2.61Zm13.33,0a2.48,2.48,0,0,1-1.37-.38,2.87,2.87,0,0,1-1-1,2.59,2.59,0,0,1-.38-1.37V-39.2a2.6,2.6,0,0,1,.38-1.38,2.87,2.87,0,0,1,1-1,2.57,2.57,0,0,1,1.37-.38h6.23a2.59,2.59,0,0,1,1.37.38,2.69,2.69,0,0,1,1,1,2.52,2.52,0,0,1,.38,1.38v4.33h-9.11v1.62a.32.32,0,0,0,.06.18.35.35,0,0,0,.18,0h8.87v2.61Zm-.14-6.8h6.51V-39.1a.19.19,0,0,0-.08-.16.18.18,0,0,0-.16-.08h-6a.22.22,0,0,0-.18.08.21.21,0,0,0-.06.16Zm13.94,6.8a2.63,2.63,0,0,1-1.4-.38,2.93,2.93,0,0,1-1-1,2.67,2.67,0,0,1-.36-1.37v-4.34h9.11V-39.1a.17.17,0,0,0-.08-.16.17.17,0,0,0-.16-.08h-8.87v-2.61h9a2.6,2.6,0,0,1,1.38.38,2.76,2.76,0,0,1,1,1,2.6,2.6,0,0,1,.38,1.38v8.79Zm.1-2.61h6.26v-2.12H120v1.89a.32.32,0,0,0,.06.18A.35.35,0,0,0,120.23-33ZM131-30.41V-41.95h9a2.59,2.59,0,0,1,1.37.38,2.69,2.69,0,0,1,1,1,2.52,2.52,0,0,1,.38,1.38v8.79h-2.6V-39.1a.19.19,0,0,0-.08-.16.18.18,0,0,0-.16-.08h-6a.22.22,0,0,0-.18.08.21.21,0,0,0-.06.16v8.69Z" transform="translate(-56.84 53.73)"/><path class="cls-3" d="M144.92-30.41V-44.74h2.88l8.8,10.47V-44.74h2.64v14.33h-2.88l-8.82-10.48v10.48Zm16.59,0V-44.74h13.2v2.65H164.16v3.18h8.48v2.67h-8.48v5.83Zm19.67,0V-42.09h-5.85v-2.65h14.33v2.65h-5.83v11.68Z" transform="translate(-56.84 53.73)"/></svg>